<svg id="visual" viewBox="0 0 900 600" width="900" height="600" xmlns="http://www.w3.org/2000/svg" xmlns:xlink="http://www.w3.org/1999/xlink" version="1.1"><rect x="0" y="0" width="900" height="600" fill="#f1f5f9"></rect><defs><linearGradient id="grad1_0" x1="33.3%" y1="100%" x2="100%" y2="0%"><stop offset="20%" stop-color="#f1f5f9" stop-opacity="1"></stop><stop offset="80%" stop-color="#f1f5f9" stop-opacity="1"></stop></linearGradient></defs><defs><linearGradient id="grad2_0" x1="0%" y1="100%" x2="66.7%" y2="0%"><stop offset="20%" stop-color="#f1f5f9" stop-opacity="1"></stop><stop offset="80%" stop-color="#f1f5f9" stop-opacity="1"></stop></linearGradient></defs><g transform="translate(900, 600)"><path d="M-513.8 0C-421.5 -43.8 -329.2 -87.6 -297.9 -172C-266.6 -256.4 -296.4 -381.2 -256.9 -445C-217.4 -508.7 -108.7 -511.2 0 -513.8L0 0Z" fill="#34d399"></path></g><g transform="translate(0, 0)"><path d="M513.8 0C510.7 107.8 507.6 215.6 445 256.9C382.3 298.2 260.1 273.1 176 304.8C91.9 336.6 46 425.2 0 513.8L0 0Z" fill="#34d399"></path></g></svg>