<svg id="visual" viewBox="0 0 900 250" width="900" height="250" xmlns="http://www.w3.org/2000/svg" xmlns:xlink="http://www.w3.org/1999/xlink" version="1.1"><rect x="0" y="0" width="900" height="250" fill="#f1f5f9"></rect><path d="M0 113L12.5 108.7C25 104.3 50 95.7 75 102.8C100 110 125 133 150 136.8C175 140.7 200 125.3 225 124.2C250 123 275 136 300 137.7C325 139.3 350 129.7 375 116.3C400 103 425 86 450 83.8C475 81.7 500 94.3 525 109.2C550 124 575 141 600 134.8C625 128.7 650 99.3 675 89.3C700 79.3 725 88.7 750 96.2C775 103.7 800 109.3 825 114.2C850 119 875 123 887.5 125L900 127L900 0L887.5 0C875 0 850 0 825 0C800 0 775 0 750 0C725 0 700 0 675 0C650 0 625 0 600 0C575 0 550 0 525 0C500 0 475 0 450 0C425 0 400 0 375 0C350 0 325 0 300 0C275 0 250 0 225 0C200 0 175 0 150 0C125 0 100 0 75 0C50 0 25 0 12.5 0L0 0Z" fill="#34d399" stroke-linecap="round" stroke-linejoin="miter"></path></svg>